<?xml version="1.0" encoding="UTF-8"?>
<svg id="Capa_2" data-name="Capa 2" xmlns="http://www.w3.org/2000/svg" viewBox="0 0 894.76 285.68">
  <g id="Capa_1-2" data-name="Capa 1">
    <path d="M17.86,15.08c23.32-6.2,47.56-8.68,71.66-7.3,11.18,.64,23.13,1.46,33.54,5.93,8.76,3.76,16.83,11.2,18.25,21.05,1.34,9.26-4.44,17.15-11.42,22.53-8.02,6.19-17.76,10.09-27.13,13.7-21.7,8.36-44.61,13.61-67.79,15.46-2.83,.23-5.66,.42-8.5,.52-2.56,.09-5.18,.09-7.64-.73-4.81-1.62-6.34-6.63-7.27-11.13-2.5-12.06-4.61-24.21-6.9-36.3-.58-3.05-1.16-6.09-1.74-9.14L.03,30.46c11.62,31.95,23.25,63.89,34.87,95.84,11.62,31.95,23.25,63.89,34.87,95.84,6.55,17.99,13.09,35.98,19.64,53.97,.65,1.8,3.56,1.02,2.89-.8-11.62-31.95-23.25-63.89-34.87-95.84-11.62-31.95-23.25-63.89-34.87-95.84C16.02,65.65,9.47,47.66,2.93,29.67c-.66-1.82-3.25-1.11-2.89,.8,2.45,12.89,4.89,25.77,7.34,38.66,.96,5.06,1.45,10.91,4.43,15.29s8.19,5.66,13.37,5.59c12.07-.16,24.29-1.85,36.13-4.1,11.98-2.27,23.78-5.44,35.29-9.47,5.72-2,11.36-4.23,16.92-6.65,4.65-2.03,9.24-4.19,13.54-6.9,7.67-4.83,15.16-11.7,16.98-20.97,1.96-10.01-3.25-19.74-11.02-25.83-9-7.05-20.68-9.12-31.76-10.33-25.08-2.75-50.62-1.28-75.24,4.23-3,.67-5.98,1.41-8.95,2.2-1.86,.5-1.07,3.39,.8,2.89h0Z"/>
    <path d="M136.5,138.94c-13.1-1.75-24.27,8.42-29.1,19.73-2.69,6.3-3.92,13.06-4.65,19.84-.82,7.6-1.1,15.27-.94,22.92,.16,7.76,.8,15.5,1.9,23.18,.54,3.78,1.16,7.55,1.96,11.29,.68,3.18,1.67,6.38,3.75,8.95,3.75,4.62,10.43,6.26,16.11,6.7,5.37,.42,10.85-.45,15.89-2.32,11.32-4.21,20.84-13.38,24.15-25.16,.52-1.86-2.37-2.66-2.89-.8-2.72,9.69-10.05,17.45-19.03,21.77-4.45,2.14-9.37,3.41-14.31,3.58s-10.86-.67-15.2-3.53c-2.58-1.7-4.02-4.28-4.88-7.18-.99-3.33-1.52-6.83-2.08-10.25-1.16-7.07-1.89-14.21-2.22-21.37-.34-7.29-.25-14.6,.27-21.89,.46-6.53,1.2-13.08,3.06-19.38s5.19-12.7,10.41-17.22c4.9-4.25,11.28-6.73,17.79-5.86,.81,.11,1.49-.77,1.5-1.5,0-.9-.7-1.39-1.5-1.5h0Z"/>
    <path d="M92.18,200.49c10.15-1.02,20.29-2.03,30.44-3.05,1.9-.19,1.92-3.19,0-3-10.15,1.02-20.29,2.03-30.44,3.05-1.9,.19-1.92,3.19,0,3h0Z"/>
    <path d="M156.78,151.65c1.38,19.38,2.76,38.75,4.14,58.13,.39,5.46,.78,10.93,1.17,16.39l2.95-.4c-4.69-29.23-8.18-58.65-10.45-88.17-.56-7.31-1.05-14.63-1.46-21.95-.14-2.51-.99-6.73,1.17-8.65,.93-.82,2.24-1.04,3.44-1.13,1.76-.13,3.55-.08,5.32-.08,14.25,.03,28.49,1.38,42.49,4.05,6.83,1.3,13.6,2.92,20.29,4.83,5.75,1.65,11.53,3.41,16.97,5.93,8.88,4.11,18.36,10.65,20.07,21.01,1.05,6.39-1.42,12.71-4.46,18.2-2.93,5.31-6.4,10.35-9.95,15.26-6.98,9.65-14.84,18.67-23.39,26.97-17.01,16.5-36.84,30.08-58.41,39.91-2.65,1.21-5.33,2.36-8.04,3.45-1.77,.71-1,3.62,.8,2.89,22.98-9.26,44.2-22.6,62.56-39.24,9.12-8.27,17.51-17.33,25.04-27.07,3.72-4.81,7.24-9.78,10.52-14.91,3.63-5.67,7.21-11.78,8.24-18.53,.86-5.56-.2-11.16-3.19-15.95-2.81-4.52-6.96-8.06-11.42-10.88s-9.63-5.09-14.76-6.88c-6.8-2.37-13.79-4.28-20.8-5.92-14.29-3.34-28.9-5.33-43.56-5.93-3.63-.15-7.27-.21-10.9-.19-3,.02-6.43-.15-8.84,1.96-2.28,2-2.47,5.24-2.35,8.06,.16,3.74,.42,7.48,.66,11.22,1.96,30.55,5.23,61.02,9.77,91.29,.56,3.75,1.14,7.49,1.74,11.23,.27,1.66,3.07,1.28,2.95-.4-1.38-19.38-2.76-38.75-4.14-58.13-.39-5.46-.78-10.93-1.17-16.39-.14-1.91-3.14-1.93-3,0h0Z"/>
    <path d="M265.5,226.4c-.11-21.16-.22-42.32-.33-63.49-.03-5.33-.05-10.66-.08-16-.03-4.89-.19-9.8,.14-14.68,.31-4.58,1.18-9.2,3.43-13.24,1.86-3.36,4.53-6.25,7.63-8.51,7.15-5.22,15.86-7.28,24.58-7.65,4.99-.21,9.99,.06,14.97,.44,3.89,.3,8.35,.23,11.95,1.95,3.78,1.8,4.7,5.59,3.06,9.29-1.83,4.13-5.34,7.25-8.5,10.34-7,6.86-14.14,13.56-21.43,20.11-14.71,13.22-29.99,25.8-45.8,37.68-1.99,1.49-3.99,2.98-5.99,4.45-1.13,.83-.85,2.8,.76,2.8,20.39-.03,40.69,3.34,60.04,9.75,19.34,6.41,37.66,15.87,54.08,27.94,9.21,6.77,17.78,14.4,25.6,22.74,1.32,1.41,3.44-.71,2.12-2.12-14.15-15.1-30.81-27.82-49.02-37.65-18.15-9.8-37.84-16.79-58.13-20.51-11.44-2.1-23.06-3.17-34.68-3.15l.76,2.8c16.71-12.28,32.87-25.3,48.4-39.03,7.75-6.85,15.34-13.88,22.76-21.08,3.46-3.36,7.21-6.63,9.95-10.62,2.37-3.44,3.97-7.82,2.11-11.85-1.67-3.62-5.55-5.27-9.25-5.94-4.74-.85-9.68-1.03-14.48-1.27-9.69-.47-19.61,.09-28.59,4.08-7.59,3.38-14.13,9.21-17.13,17.08-1.76,4.6-2.21,9.61-2.33,14.5-.13,5.28,0,10.56,.03,15.84,.11,22.25,.23,44.49,.34,66.74,.01,2.75,.03,5.5,.04,8.25,0,1.93,3.01,1.93,3,0h0Z"/>
    <path d="M383.05,148.94c1.02,15.44,3.63,30.78,7.81,45.68,4.2,14.96,9.97,29.5,17.18,43.26,6.4,12.21,13.87,24.31,24.09,33.71,4.85,4.46,10.32,8.27,16.39,10.85,6.69,2.85,14.55,4.73,21.51,1.68,5.88-2.57,9.78-8.15,12.56-13.71,3.44-6.89,6.02-14.31,8.15-21.7,4.26-14.8,6.41-30.41,5.86-45.82-.47-13.11-2.99-26.27-8.37-38.28-5.06-11.28-13.02-21.84-23.66-28.38-9.39-5.77-20.78-8.4-31.76-7.62s-21.13,4.73-28.5,12.55c-1.81,1.92-3.39,4.04-4.74,6.3-.99,1.66,1.6,3.17,2.59,1.51,10.98-18.37,36.42-21.24,54.74-13.35,22.84,9.84,33.61,35.62,36.11,58.91,1.52,14.17,.45,28.65-2.47,42.57-1.56,7.42-3.67,14.71-6.32,21.81-2.28,6.09-4.76,12.61-9.09,17.59-1.94,2.23-4.29,4.17-7.09,5.2-3.6,1.33-7.52,1.16-11.22,.32-6.33-1.43-12.24-4.48-17.44-8.31-10.44-7.68-18.15-18.62-24.56-29.73-14.88-25.83-24.43-54.76-27.82-84.38-.41-3.55-.72-7.11-.96-10.68-.13-1.92-3.13-1.93-3,0h0Z"/>
    <path d="M549.77,35.34c1.97,29.24,3.95,58.47,5.92,87.71,1.96,29.07,3.92,58.14,5.89,87.21,1.11,16.45,2.22,32.89,3.33,49.34,.13,1.92,3.13,1.93,3,0-1.97-29.24-3.95-58.47-5.92-87.71-1.96-29.07-3.92-58.14-5.89-87.21-1.11-16.45-2.22-32.89-3.33-49.34-.13-1.92-3.13-1.93-3,0h0Z"/>
    <path d="M500.68,71.52c4.74-21.1,17.24-40.32,34.55-53.29,9.34-6.99,20.2-12.56,31.78-14.55,6.12-1.05,12.43-.91,18.44,.68,5.51,1.46,10.64,4.03,15.36,7.21,9.83,6.62,17.85,15.71,25.25,24.87,7.82,9.69,14.84,20.02,21.02,30.83,3.12,5.46,6.02,11.05,8.69,16.74,2.65,5.64,5.41,11.44,7.02,17.48s1.56,11.99-2.66,16.62c-3.78,4.15-9.26,6.41-14.29,8.66-24.12,10.8-49.78,18.18-75.94,21.94-3.23,.46-6.47,.87-9.71,1.22-1.9,.21-1.92,3.21,0,3,27.32-2.96,54.19-9.76,79.58-20.3,5.83-2.42,11.94-4.77,17.28-8.16,4.86-3.09,8.69-7.46,9.53-13.32,.92-6.43-1.37-12.82-3.81-18.67-2.46-5.93-5.15-11.76-8.09-17.47-5.94-11.58-12.85-22.67-20.62-33.11s-15.47-19.81-25.01-27.83S588.93,.53,576.72,.04c-12.79-.51-25.4,4.34-36.15,10.95-19.08,11.73-33.73,30.43-40.61,51.74-.85,2.63-1.57,5.3-2.18,8-.42,1.88,2.47,2.68,2.89,.8h0Z"/>
    <path d="M592.1,193.18c-.11,9.7-.22,19.41-.33,29.11-.05,4.17-.56,8.66,.34,12.77s3.66,6.35,7.32,7.69c4.15,1.51,8.7,2.26,13.03,3.01,4.57,.79,9.19,1.36,13.82,1.69,4.11,.3,8.69,.87,12.73-.26s6.17-4.22,7.29-8.02c2.04-6.94,2.65-14.56,2.24-21.76s-1.95-14.18-4.92-20.69-7.1-11.89-12.6-15.99c-4.8-3.57-10.6-5.67-16.5-6.45-11.34-1.49-23.99,2.11-30.74,11.86-.81,1.17-1.49,2.41-2.08,3.7-.79,1.74,1.79,3.27,2.59,1.51,4.52-9.92,15.26-14.55,25.73-14.41,5.39,.07,10.81,1.35,15.58,3.9,5.35,2.86,9.66,7.36,12.82,12.5,6.94,11.26,8.45,25.38,6.42,38.26-.52,3.28-.98,7.16-2.82,9.99-2.06,3.16-6.07,3.25-9.46,3.16-8.8-.21-17.58-1.32-26.16-3.25-3.3-.74-7.73-1.33-10.01-4.13s-1.7-7.26-1.66-10.64c.1-8.96,.21-17.93,.31-26.89,.03-2.22,.05-4.44,.08-6.66,.02-1.93-2.98-1.93-3,0h0Z"/>
    <path d="M666.89,237.48c.07-18.82,.14-37.63,.21-56.45,.02-5.39,.04-10.78,.06-16.16l-2.95,.4c8.33,26.25,20.56,51.26,36.22,73.92,4.36,6.31,8.99,12.43,13.85,18.37,.91,1.11,2.45,.09,2.56-1.06,2.64-27.85,3.7-55.84,3.15-83.8-.16-7.94-.45-15.88-.86-23.82-.1-1.92-3.1-1.93-3,0,1.46,27.93,1.33,55.94-.41,83.86-.49,7.93-1.12,15.85-1.87,23.76l2.56-1.06c-17.11-20.88-31.14-44.33-41.42-69.3-2.93-7.11-5.55-14.34-7.87-21.67-.5-1.59-2.94-1.34-2.95,.4-.07,18.82-.14,37.63-.21,56.45-.02,5.39-.04,10.78-.06,16.16,0,1.93,2.99,1.93,3,0h0Z"/>
    <path d="M801.4,157.01c-16.68-7.06-36.88,1.96-45.15,17.55-9.47,17.86-3.84,41.26,9.83,55.36,7.83,8.08,19.29,13.89,30.71,11.03,1.87-.47,1.08-3.36-.8-2.89-9.27,2.32-18.65-1.93-25.5-8.06s-11.92-14.78-14.32-23.83c-2.35-8.86-2.22-18.39,1.21-26.96,3.09-7.74,9.17-14,16.52-17.82,7.92-4.12,17.61-5.33,25.98-1.79,.75,.32,1.6,.22,2.05-.54,.37-.63,.21-1.74-.54-2.05h0Z"/>
    <path d="M848.26,158.52c-6.79-.07-13.58-.15-20.37-.22-4.86-.05-12.07-1.19-14.07,4.65-.94,2.74-.61,6-.6,8.84,0,3.24,.08,6.49,.21,9.73,.27,6.56,.78,13.11,1.55,19.64s1.77,12.96,3.02,19.38c.6,3.1,1.24,6.19,1.99,9.25,.68,2.76,1.54,5.54,3.07,7.96,5.2,8.19,15.71,9.22,24.46,7.61,12.4-2.3,23.34-11.25,36.43-9.81,1.92,.21,1.9-2.79,0-3-11.45-1.26-21.42,5.17-31.9,8.56-7.4,2.4-17.58,3.59-23.92-2-3.94-3.48-4.97-8.74-6.05-13.65-1.34-6.1-2.45-12.25-3.33-18.43-1.76-12.3-2.59-24.75-2.52-37.18,.01-2.35-.52-6.19,1.74-7.74,1.1-.75,2.56-.83,3.85-.86,1.7-.04,3.4,.02,5.09,.04,7.12,.08,14.24,.15,21.36,.23,1.93,.02,1.93-2.98,0-3h0Z"/>
    <path d="M817.8,194.67c19.62,0,39.25,0,58.87,0,5.55,0,11.09,0,16.64,0,1.93,0,1.93-3,0-3-19.62,0-39.25,0-58.87,0-5.55,0-11.09,0-16.64,0-1.93,0-1.93,3,0,3h0Z"/>
  </g>
</svg>