<?xml version="1.0" encoding="UTF-8"?>
<svg id="Capa_1" data-name="Capa 1" xmlns="http://www.w3.org/2000/svg" viewBox="0 0 369 43.5">
  <defs>
    <style>
      .cls-1 {
        fill: #f7e2e2;
      }

      .cls-1, .cls-2 {
        stroke-width: 0px;
      }

      .cls-2 {
        fill: #000;
      }
    </style>
  </defs>
  <path class="cls-1" d="M196.5,13.5c-1-15-25-17-28-1,0,0-8-13-17-3,0,0-5-7-10-4s-5,5-5,5c0,0-5-12-25,3,0,0,1-8-10-10s-18,2-18,2l-2,5-7-3-7-2-7,3-3,4-2-5-9-2-15,9-4-9-6.17-1.08-2.83,3.08-2,7S10.5-.5,6.5,6.5s-11,33.79,5,34.89c0,0,5-6.89,4-9.89,0,0,7,10,10,8s5-5,5-5c0,0,10,10,19,4l3-2,3-4-1-3,3-5,2,9s1,12,15,6,11-24,11-24c0,0,3,2,6,1l-4,2v8s-1,14,7,14,10-6,10-8v-13.93l5-2.07-1,6s-3.7,16.48,14.65,18.24c0,0,8.35-1.24,11.35-6.24,0,0,7,11,12,0l2-1s1,5,6,2c0,0,6,10,13-3,0,0,4,15,11,9s2-14,2-14c0,0,17,1,16-14ZM57,20l-2.95-3.03,2.95-3.03v6.06Z"/>
  <path class="cls-2" d="M76.05,21.59c-.23-.13-.48-.18-.75-.15-1.07.27-2.3.6-3.7,1-.23-2.23-1.1-4.25-2.6-6.05-.17-.2-.38-.32-.65-.35-.27-.03-.51.04-.72.23-.22.18-.34.41-.38.68-.03.27.05.52.25.75.97,1.2,1.6,2.51,1.9,3.92.3,1.42.37,2.75.2,4-.17,1.25-.52,2.77-1.05,4.58-.1.27-.08.52.05.77.13.25.33.42.6.5.27.08.52.06.77-.08.25-.13.41-.33.48-.6.77-2.6,1.18-4.73,1.25-6.4.17.03.33.02.5-.05,1.33-.4,2.5-.7,3.5-.9.3-.07.52-.22.65-.45.13-.23.18-.49.12-.77-.05-.28-.19-.49-.42-.62Z"/>
  <path class="cls-2" d="M186.47,1.92c-3.85-1.15-7.56-1.06-11.12.28-.7.3-1.37.77-2,1.4-1.73.9-3.22,2.6-4.45,5.1-.29.59-.57,1.22-.83,1.88-.29-.59-.61-1.14-.97-1.63-1.13-1.5-2.63-2.59-4.5-3.28-1.87-.68-3.78-.87-5.75-.55-1.97.32-3.65,1.11-5.05,2.38l-.95-.9c-.6-.6-1.17-1.03-1.7-1.3-3.07-1.57-5.93-1.7-8.6-.4-1.48.72-2.82,1.87-4.04,3.44-.18-.4-.36-.73-.56-.99-.37-.43-.9-.83-1.6-1.2l-.3-.1c-1.3-.6-2.74-.95-4.33-1.05-1.58-.1-3.14.02-4.67.35-1.53.33-3.1.83-4.7,1.5-2.5,1.07-4.75,2.4-6.75,4-.38.31-.73.62-1.08.94,0-.06,0-.12-.02-.19-.33-1.77-1.22-3.33-2.67-4.7-1.45-1.37-3.12-2.42-5.02-3.15-1.83-.73-3.9-1.25-6.2-1.55-3.4-.47-6.63-.38-9.7.25-3.13.63-5.4,1.8-6.8,3.5-.83,1.06-1.31,2.25-1.45,3.56-1.76-1.44-3.7-2.62-5.85-3.51-1.87-.77-3.72-1.26-5.55-1.48-1.83-.22-3.67-.06-5.5.48-1.8.53-3.32,1.5-4.55,2.9-.56.64-1.03,1.4-1.41,2.28-.07-.37-.16-.75-.29-1.13-.27-.73-.55-1.3-.85-1.7-.37-.43-.9-.83-1.6-1.2l-.3-.1c-1.3-.6-2.74-.95-4.33-1.05-1.58-.1-3.14.02-4.67.35-1.53.33-3.1.83-4.7,1.5-2.5,1.07-4.75,2.4-6.75,4-.78.63-1.46,1.27-2.09,1.92-.12-.47-.24-.94-.38-1.39-.95-2.98-2.38-5.19-4.27-6.62-2.2-1.63-4.4-1.88-6.6-.75-1.87,1-3.2,2.7-4,5.1-.27.83-.5,1.63-.7,2.4-.63-1.27-1.27-2.4-1.9-3.4-.73-1.1-1.42-1.98-2.05-2.65-.87-.9-1.7-1.38-2.5-1.45-.4-.03-.85.02-1.35.15-.1,0-.21.02-.33.05-.12.03-.22.07-.32.1-.1.03-.2.05-.3.05-.27.07-.47.19-.62.38-.15.18-.22.41-.22.67-2.83,2.8-4.62,7.03-5.35,12.7-.57,4.63-.42,9.48.45,14.55.5,2.87,1.23,5.17,2.2,6.9.73,1.3,1.6,2.23,2.6,2.8,1.23.73,2.58.85,4.05.35,1.53-.5,2.85-1.83,3.95-4,.77-1.53,1.28-3.13,1.55-4.8,1.27,2,2.7,3.57,4.3,4.7,1.4.97,2.75,1.47,4.05,1.5,1.6.03,3-.63,4.2-2,.73-.81,1.38-1.8,1.94-2.95,1.31,1.79,2.97,3.25,5.01,4.4,1.67.97,3.55,1.58,5.65,1.83s4.12.12,6.05-.38c2.1-.5,3.93-1.41,5.5-2.73,1.57-1.32,2.65-3.01,3.25-5.07.17-.5.27-1.1.3-1.8.07-.83.02-1.48-.15-1.95-.07-.13-.15-.28-.25-.45.3-.33.57-.68.8-1.05.34-.54.59-1.1.8-1.67.08.43.16.86.25,1.32.1.63.28,1.61.55,2.92.27,1.32.45,2.26.55,2.83l.1.2c-.27.23-.38.53-.35.9.27,1.87.95,3.41,2.05,4.62s2.45,2.04,4.05,2.47c1.53.43,3.13.53,4.8.3,1.67-.23,3.25-.75,4.75-1.55,1.97-1.1,3.78-2.44,5.45-4.02,1.67-1.58,3.1-3.37,4.3-5.35.92-1.53,1.61-3.13,2.06-4.81-.1,5.5,1.3,9.88,4.19,13.13.83.97,1.62,1.62,2.35,1.95.83.37,1.87.48,3.1.35,2.57-.3,4.72-1.13,6.45-2.5,1.9-1.5,3.08-4.32,3.55-8.45.33-2.97.3-5.97-.1-9-.03-.27-.15-.68-.35-1.25-.13-.4-.2-.68-.2-.85,0-.13-.02-.33-.05-.6l.3-.05c.73-.07,1.18-.13,1.35-.2.48-.17.93-.36,1.35-.55-.83,2.08-1.28,4.25-1.35,6.5-.1,3.03.56,5.9,1.98,8.6,1.42,2.7,3.49,4.82,6.23,6.35,1.67.97,3.55,1.58,5.65,1.83s4.12.12,6.05-.38c2.1-.5,3.93-1.41,5.5-2.73.87-.73,1.58-1.59,2.15-2.55.15.21.29.42.45.63,1.83,2.37,3.62,3.75,5.35,4.15,1.47.37,2.77.2,3.9-.5.83-.53,1.6-1.38,2.3-2.55l.45-.8.5-1c.17-.33.3-.58.4-.75l.1-.2.2.35c.77,1.3,1.57,2.08,2.4,2.35,1.23.37,2.4.03,3.5-1l.35-.35s.08-.02.15-.05c.53.87,1.1,1.6,1.7,2.2.93.93,1.92,1.53,2.95,1.8,1.33.33,2.67.08,4-.75,1.56-.97,2.88-2.54,3.96-4.71.89,2.19,1.87,4.02,2.94,5.46,2,2.67,4.17,3.78,6.5,3.35,2.5-.47,4.27-2.28,5.3-5.45.8-2.43,1.05-4.92.75-7.45-.07-.6-.22-1.25-.45-1.95.17.07.27.1.3.1,1.43.23,3.02.07,4.75-.5,3.07-1,5.58-2.76,7.55-5.27,1.97-2.52,3.1-5.38,3.4-8.58.17-1.9-.58-3.93-2.25-6.1-2.3-3-5.38-5.07-9.22-6.23ZM56.4,15.34c.11-.14.2-.28.3-.42-.11,1.27-.12,2.68-.04,4.21-.47-.67-1.05-1.3-1.76-1.89-.03-.03-.08-.07-.15-.1l.15-.15c.73-.77,1.23-1.32,1.5-1.65ZM31.3,21.14c0,3.18-.35,6.17-1.05,8.97-.61-1.74-.89-3.56-.83-5.47.07-2.38.63-4.65,1.67-6.82.11,1.07.19,2.17.2,3.32ZM27.15,36.79c-.8.87-1.68,1.3-2.65,1.3-.9-.03-1.88-.42-2.95-1.15-.53-.4-1.13-1.13-1.8-2.2l-1.75-2.75c-.47-.73-.82-1.02-1.05-.85-.97-3.37-1.58-5.83-1.85-7.4-.07-.27-.21-.48-.42-.65-.22-.17-.46-.23-.73-.18-.27.05-.48.18-.65.4-.17.22-.23.46-.2.72.23,1.43.63,3.18,1.2,5.25v1.75c-.03,1.1-.08,1.9-.15,2.4-.2,1.53-.67,2.98-1.4,4.35-.83,1.67-1.75,2.67-2.75,3-.93.3-1.75.25-2.45-.15-.67-.4-1.28-1.1-1.85-2.1-.83-1.53-1.48-3.6-1.95-6.2-.87-4.9-1.02-9.57-.45-14,.7-5.53,2.45-9.53,5.25-12,.1-.07.17-.15.2-.25h.15c.3-.1.53-.13.7-.1.3.03.72.32,1.25.85.57.57,1.17,1.35,1.8,2.35,1,1.53,1.88,3.17,2.65,4.9.03.1.07.45.1,1.05.03.87.27,1.5.7,1.9l.15.15c.07.07.18.12.35.17.17.05.37.04.6-.02.43-.13.68-.42.75-.85v-.75c-.07-.8-.08-1.35-.05-1.65.1-1.27.42-2.73.95-4.4.6-1.87,1.62-3.17,3.05-3.9,1.47-.77,2.95-.58,4.45.55,1.57,1.17,2.77,3.1,3.6,5.8.26.79.47,1.63.65,2.48-.32.44-.6.87-.85,1.32-1.47,2.73-2.25,5.62-2.35,8.65-.1,2.99.54,5.82,1.92,8.49-.61,1.54-1.33,2.77-2.17,3.71ZM55.05,26.84c-.17.27-.35.53-.55.8-1.03-.8-2.13-1.29-3.3-1.48-1.17-.18-2.38,0-3.65.58-.27.13-.44.33-.52.6-.08.27-.06.52.08.77.13.25.33.42.6.5.27.08.52.06.75-.08.87-.43,1.77-.55,2.7-.35.93.2,1.78.65,2.55,1.35.1.23.28.45.55.65l.1.05c.03.27.03.6,0,1-.03.57-.1,1.02-.2,1.35-.5,1.7-1.4,3.08-2.7,4.15-1.27,1.1-2.8,1.88-4.6,2.35-1.73.4-3.52.49-5.35.27-1.83-.22-3.47-.73-4.9-1.52-2.16-1.25-3.83-2.93-5.06-5.02.2-.6.39-1.22.56-1.88.8-3.1,1.2-6.37,1.2-9.8-.02-2.09-.22-4.07-.56-5.96.76-.96,1.7-1.91,2.86-2.84,1.87-1.5,3.93-2.72,6.2-3.65,2.43-1,4.72-1.57,6.85-1.7,2.17-.13,4.1.25,5.8,1.15.07.07.15.1.25.1.17.13.28.25.35.35.17.2.35.58.55,1.15.57,1.57.32,3.02-.75,4.35-.23.3-.7.8-1.4,1.5-.13.13-.23.25-.3.35-.17,0-.33.03-.5.1-.67.4-1.56,1.04-2.67,1.93-1.12.88-1.93,1.49-2.43,1.82-.23.13-.38.33-.45.6-.07.27-.03.52.1.75.13.23.33.38.6.45.27.07.52.03.75-.1.6-.37,1.5-1.02,2.7-1.95.67-.57,1.2-.98,1.6-1.25.13.1.27.2.42.3s.26.15.33.15c1.57,1.33,2.38,2.85,2.45,4.55.07,1.27-.27,2.45-1,3.55ZM167.65,24.64c-.03.26-.08.51-.12.77.01-1.84.13-3.71.37-5.63.03,1.57-.05,3.18-.25,4.86ZM133.8,27.64c-.2-.15-.4-.29-.61-.42-.18-2.08,0-4.55.58-7.43.01-.05.02-.1.04-.15.97,1.11,1.49,2.32,1.54,3.65.07,1.27-.27,2.45-1,3.55-.17.27-.35.53-.55.8ZM84,26.14c-.87,2.7-2.23,5.09-4.1,7.18-1.87,2.08-4.07,3.81-6.6,5.17-1.27.7-2.61,1.15-4.02,1.35-1.42.2-2.74.13-3.98-.2-2.7-.77-4.25-2.6-4.65-5.5-.03-.1-.07-.18-.1-.25.3-.27.42-.58.35-.95-.1-.53-.28-1.47-.55-2.8l-.6-2.95c-.5-2.63-.83-4.9-1-6.8-.53-5.43.12-9.17,1.95-11.2,1.47-1.63,3.43-2.54,5.9-2.73,2.47-.18,4.93.27,7.4,1.38,2.57,1.07,4.81,2.53,6.72,4.4.06.06.12.12.18.19.08.26.16.51.27.76.48,1.13,1.25,2.12,2.3,2.97.08.07.17.12.26.18.26.57.47,1.15.62,1.74.63,2.67.52,5.35-.35,8.05ZM86.65,20.55c-.06-.97-.18-1.95-.4-2.96,0,0,0-.01,0-.02.25.07.5.13.75.17h.2c-.22.96-.39,1.89-.55,2.81ZM106,16.74s-.33.05-.9.15c-.77.07-1.32.33-1.65.8-.3.4-.42,1.03-.35,1.9.03.37.13.82.3,1.35.17.47.25.78.25.95.4,2.9.45,5.73.15,8.5-.4,3.57-1.33,5.92-2.8,7.05-1.47,1.17-3.28,1.87-5.45,2.1-.9.1-1.6.03-2.1-.2-.43-.2-.98-.67-1.65-1.4-3.87-4.33-4.72-11.07-2.55-20.2.47-.03,1.1-.11,1.9-.23.8-.12,1.27-.17,1.4-.17.3-.03.53-.16.7-.38.17-.22.23-.47.2-.75-.03-.28-.16-.51-.38-.68-.22-.17-.46-.23-.73-.2l-1.8.25c-.97.13-1.52.2-1.68.2s-.67-.02-1.57-.05c-.73-.1-1.39-.33-1.99-.7-.62-1.24-1.49-2.44-2.58-3.6-.11-.53-.14-1.09-.08-1.68.1-.95.45-1.79,1.05-2.52,1.07-1.37,2.98-2.33,5.75-2.9,2.77-.57,5.73-.63,8.9-.2,3.27.47,6.02,1.39,8.27,2.77,2.25,1.38,3.54,3.08,3.88,5.08.2,1.07-.15,2.03-1.05,2.9-.77.7-1.92,1.32-3.45,1.85ZM130.75,36.74c-1.27,1.1-2.8,1.88-4.6,2.35-1.73.4-3.52.49-5.35.27-1.83-.22-3.47-.73-4.9-1.52-2.37-1.37-4.18-3.23-5.43-5.6-1.25-2.37-1.83-4.9-1.75-7.6.08-2.7.79-5.27,2.12-7.7.83-1.57,2.18-3.1,4.05-4.6,1.87-1.5,3.93-2.72,6.2-3.65,2.43-1,4.72-1.57,6.85-1.7,2.17-.13,4.1.25,5.8,1.15.07.07.15.1.25.1.17.13.28.25.35.35.17.2.35.58.55,1.15.09.24.15.47.19.7-.1.17-.2.33-.29.5-.77,1.41-1.41,2.94-1.95,4.55-.03.03-.06.06-.1.1-.13.13-.23.25-.3.35-.17,0-.33.03-.5.1-.67.4-1.56,1.04-2.67,1.93-1.12.88-1.93,1.49-2.43,1.82-.23.13-.38.33-.45.6-.07.27-.03.52.1.75.13.23.33.38.6.45.27.07.52.03.75-.1.6-.37,1.5-1.02,2.7-1.95.62-.52,1.1-.9,1.49-1.17-.08.34-.17.67-.24,1.02-.52,2.6-.73,4.89-.66,6.92-.21-.05-.42-.11-.64-.14-1.17-.18-2.38,0-3.65.58-.27.13-.44.33-.52.6-.08.27-.06.52.08.77.13.25.33.42.6.5.27.08.52.06.75-.08.87-.43,1.77-.55,2.7-.35.3.06.59.17.88.28.29,1.86.86,3.61,1.71,5.24-.53,1.19-1.28,2.21-2.28,3.02ZM161.85,37.54c-.83.53-1.63.7-2.4.5-.67-.17-1.33-.58-2-1.25-.53-.5-1.03-1.13-1.5-1.9l-.25-.45c1.57-1.93,2.63-3.9,3.2-5.9.1-.23.08-.47-.07-.72s-.35-.42-.6-.5c-.25-.08-.5-.05-.75.1-.25.15-.41.36-.48.62-.53,1.8-1.6,3.65-3.2,5.55l-.15.15c-.13.07-.28.2-.45.4-.47.5-.73.77-.8.8-.53.5-1.03.68-1.5.55-.1-.03-.2-.1-.3-.2-.03-.17-.1-.3-.2-.4-1.33-1.63-2.05-4.08-2.15-7.35,0-.27-.1-.49-.3-.67-.2-.18-.44-.27-.73-.27s-.52.1-.7.3c-.18.2-.27.45-.27.75.07,1.7.32,3.28.75,4.75-.2.13-.38.3-.55.5-.2.27-.42.63-.65,1.1l-.45.95c-.33.67-.6,1.17-.8,1.5-.53.87-1.08,1.48-1.65,1.85-.67.4-1.45.5-2.35.3-1.3-.33-2.72-1.48-4.25-3.45-.4-.52-.75-1.05-1.08-1.6.04-.12.09-.23.13-.35.17-.5.27-1.1.3-1.8.07-.83.02-1.48-.15-1.95-.07-.13-.15-.28-.25-.45.3-.33.57-.68.8-1.05.93-1.47,1.37-3.05,1.3-4.75-.1-2.24-1.1-4.17-2.99-5.81.08-.28.17-.56.26-.83.51-.54.87-.95,1.08-1.21,1.12-1.41,1.61-2.91,1.49-4.51,1.28-1.99,2.7-3.37,4.26-4.14,2.03-1,4.3-.87,6.8.4.37.17.78.48,1.25.95l1,.95-.2.25c-.13.23-.18.48-.12.75.05.27.19.48.42.62.23.15.48.2.75.15.27-.05.48-.19.65-.42.9-1.43,2.23-2.42,3.98-2.95,1.75-.53,3.52-.55,5.3-.05s3.19,1.43,4.23,2.8c.67.89,1.2,2.05,1.6,3.47-.32,1.17-.61,2.4-.85,3.73-.53,3.07-.77,6.13-.73,9.2.03,1.94.19,3.62.47,5.04-.14.36-.27.73-.42,1.08-1.02,2.35-2.26,3.98-3.73,4.88ZM195.95,14.04c-.23,2.83-1.22,5.35-2.95,7.55-1.73,2.2-3.93,3.73-6.6,4.6-1.4.47-2.68.6-3.85.4l-.3-.05-.75-.2-.75-.2-.25-.05s-.06,0-.08-.02c-.02-.02-.04-.03-.07-.03h-.2c-.07,0-.13.02-.2.05-.17.03-.32.12-.45.25-.33.33-.43.73-.3,1.2.07.2.18.4.35.6l.2.25c.37.93.58,1.68.65,2.25.3,2.27.1,4.47-.6,6.6-.83,2.43-2.12,3.8-3.85,4.1-1.5.3-3-.55-4.5-2.55-1.1-1.47-2.08-3.37-2.95-5.7-.16-.41-.3-.87-.42-1.38.74-2.12,1.27-4.4,1.57-6.87.37-3.13.34-6.15-.07-9.05-.11-.77-.25-1.49-.42-2.17.44-1.48.95-2.83,1.54-4.02.53-1.07,1.1-1.97,1.7-2.7.43.13.8.02,1.1-.35l1.05-1.35h.15c.27-.13.45-.35.55-.65.27-.2.53-.35.8-.45,3.17-1.2,6.45-1.28,9.85-.25,3.43,1.03,6.17,2.87,8.2,5.5,1.37,1.77,1.98,3.33,1.85,4.7Z"/>
  <path class="cls-2" d="M178.75,11.29c-.2-.17-.43-.25-.7-.25s-.49.11-.67.33c-.18.22-.27.46-.27.73s.12.5.35.7c2.27,2.03,2.3,5.15.1,9.35-.13.23-.16.48-.07.75.08.27.25.47.5.6.25.13.51.16.77.08.27-.08.47-.26.6-.53,2.67-5.1,2.47-9.02-.6-11.75Z"/>
  <path class="cls-2" d="M226.81,16.2c.9,0,1.72.24,2.47.71.9.5,1.48,1.49,1.76,2.95l4.59.07c-.55-3.17-1.97-5.4-4.25-6.67-1.4-.78-3.05-1.17-4.96-1.17-3,0-5.35,1.04-7.06,3.12-1.73,2.08-2.59,4.61-2.59,7.57,0,3.17,1,5.74,2.99,7.69,1.99,1.95,4.36,2.93,7.09,2.93,1.84,0,3.62-.57,5.33-1.7,1.72-1.13,2.82-3.11,3.31-5.94h-4.47c-.18,1.01-.58,1.85-1.21,2.51-.63.67-1.55,1-2.77,1-1.33,0-2.48-.5-3.43-1.51-.95-1.01-1.43-2.63-1.43-4.86s.43-3.93,1.29-5.04c.86-1.11,1.97-1.67,3.32-1.67Z"/>
  <path class="cls-2" d="M226.42,4.75c-4.74,0-8.86,1.63-12.38,4.88-3.74,3.48-5.62,7.85-5.62,13.11s1.73,9.33,5.2,12.79,7.73,5.2,12.79,5.2,9.1-1.69,12.6-5.08c3.6-3.5,5.4-7.8,5.4-12.92s-1.76-9.2-5.27-12.72-7.76-5.27-12.72-5.27ZM236.89,33.34c-2.9,2.93-6.39,4.39-10.47,4.39s-7.6-1.46-10.5-4.37c-2.91-2.91-4.37-6.45-4.37-10.62s1.43-7.5,4.3-10.42c2.91-2.99,6.44-4.49,10.57-4.49s7.58,1.5,10.5,4.49c2.88,2.95,4.32,6.42,4.32,10.42s-1.45,7.65-4.35,10.6Z"/>
  <path class="cls-2" d="M270.5,32.68c.64-.55,1.83-1.45,3.58-2.69l2.78-1.98c2.34-1.66,4.03-3.17,5.05-4.52,1.56-2.03,2.34-4.36,2.34-6.98,0-3.42-1.11-6.16-3.32-8.24-2.21-2.08-5.19-3.11-8.94-3.11-4.74,0-8.03,1.77-9.89,5.3-.98,1.86-1.52,4.29-1.64,7.3h6.76c.08-1.99.34-3.43.78-4.35.76-1.58,2.21-2.37,4.32-2.37,1.55,0,2.73.5,3.56,1.49.83.99,1.25,2.24,1.25,3.74,0,1.84-.72,3.53-2.17,5.08-.94.99-3.02,2.64-6.23,4.93-3.69,2.64-6.04,5.14-7.03,7.5-1.03,2.1-1.57,4.42-1.64,6.96h24.24v-6.13h-15.45c.44-.73.98-1.38,1.62-1.93Z"/>
  <path class="cls-2" d="M300.1,5.1c-4.51,0-7.67,1.59-9.48,4.76-1.81,3.17-2.72,7.68-2.72,13.53s.91,10.34,2.72,13.5c1.81,3.16,4.98,4.74,9.48,4.74s7.67-1.58,9.48-4.74c1.81-3.16,2.72-7.66,2.72-13.5s-.9-10.35-2.71-13.53c-1.82-3.17-4.99-4.76-9.5-4.76ZM304.17,32.71c-.65,2.17-2.01,3.25-4.08,3.25s-3.43-1.08-4.1-3.23c-.67-2.16-1-5.27-1-9.34s.33-7.42,1-9.47c.67-2.05,2.03-3.08,4.1-3.08s3.42,1.03,4.06,3.08c.64,2.05.96,5.21.96,9.47s-.32,7.18-.95,9.33Z"/>
  <path class="cls-2" d="M326.11,32.68c.64-.55,1.83-1.45,3.58-2.69l2.78-1.98c2.34-1.66,4.03-3.17,5.05-4.52,1.56-2.03,2.34-4.36,2.34-6.98,0-3.42-1.11-6.16-3.32-8.24-2.21-2.08-5.19-3.11-8.94-3.11-4.74,0-8.03,1.77-9.89,5.3-.98,1.86-1.52,4.29-1.64,7.3h6.76c.08-1.99.34-3.43.78-4.35.76-1.58,2.21-2.37,4.32-2.37,1.55,0,2.73.5,3.56,1.49.83.99,1.25,2.24,1.25,3.74,0,1.84-.72,3.53-2.17,5.08-.94.99-3.02,2.64-6.23,4.93-3.69,2.64-6.04,5.14-7.03,7.5-1.03,2.1-1.57,4.42-1.64,6.96h24.24v-6.13h-15.45c.44-.73.98-1.38,1.62-1.93Z"/>
  <path class="cls-2" d="M364.09,27.68V5.56h-7.81l-13.01,21.48v6.08h14.01v7.62h6.81v-7.62h4v-5.44h-4ZM357.28,27.68h-8.86l8.86-15.28v15.28Z"/>
  <path class="cls-1" d="M168.08,31.71s-1.02-1.9-.55-6.3.37-5.63.37-5.63c0,0,1.41-6.55,1.25-6.16s3.85,2.38,3.85,2.38l-4.92,15.71Z"/>
  <path class="cls-1" d="M132.04,18.37s.57-.09,1.77,1.27-.62,7.58-.62,7.58c0,0-.92-.6-2.06-.91s.91-7.94.91-7.94Z"/>
  <path class="cls-1" d="M32.74,15.18s-6.67,8.47-1.21,17.65,1.21-17.65,1.21-17.65Z"/>
</svg>