<?xml version="1.0" encoding="UTF-8"?>
<svg id="Capa_2" data-name="Capa 2" xmlns="http://www.w3.org/2000/svg" viewBox="0 0 724.1 66.86">
  <defs>
    <style>
      .cls-1 {
        font-family: SimpleRounded, SimpleRounded;
        letter-spacing: -.15em;
      }

      .cls-1, .cls-2 {
        fill: #000;
        stroke: #000;
        stroke-miterlimit: 10;
      }

      .cls-3 {
        stroke-width: 0px;
      }

      .cls-3, .cls-4 {
        fill: #f5f3d7;
      }

      .cls-2 {
        font-family: GillSans-Bold, 'Gill Sans';
        font-weight: 700;
      }

      .cls-4 {
        font-family: GillSans, 'Gill Sans';
      }

      .cls-5 {
        font-size: 50px;
      }
    </style>
  </defs>
  <g id="Capa_1-2" data-name="Capa 1">
    <g>
      <path class="cls-3" d="M182.3,47.4s-12.89-23.02,2.2-36.25c0,0,5.09-1.23,8.09,10.77,0,0,5-27,14-2l3-1s23-18,25-2l-5,6s6,2.37,5,6.19l1.81-.75s-2.81-29.43,21.19-13.43l5,3-.25-6.92,7.25-3.08,13.65,1.56,5.35,3.44,3,5,4-1,10-5h11l1,3,9-5,8,3,11-2,5,6h2l7-8,7-2,10,5,5,6-1.85,9.24-9.15,4.76h-6l2,8-3.91,7.48h-4.2l-5.89-8.48-2-3-4,7-5,2-4-5-4.05,2.53-1.95-4.53-5.57,7.88-9.43-6.88-7,5s-23,8-19-21l-2-1-4,2s2.05,24.76-8.47,21.88-9.53-15.88-8.53-22.88l-4-2v7s-.57,15.76-18.28,17.88l-7.72-4.88v-4l-1-7-3.12,1.53-1.88,8.47-7,5-11.75-.32-6.23-6.35-4.03,5.67s-9,1-11-8c0,0,2.41,9.96-9.29,11.48Z"/>
      <text class="cls-5" transform="translate(178.2 45.8)"><tspan class="cls-1" x="0" y="0">nedtemp</tspan><tspan class="cls-2" x="201.95" y="0"> </tspan><tspan class="cls-4" x="216.79" y="0">© 2024</tspan></text>
    </g>
  </g>
</svg>